<?xml version="1.0" encoding="UTF-8"?><svg xmlns="http://www.w3.org/2000/svg" xmlns:xlink="http://www.w3.org/1999/xlink" width="375pt" zoomAndPan="magnify" viewBox="0 0 375 374.999991" height="374.999991pt" preserveAspectRatio="xMidYMid meet" version="1.2"><g xml:id="surface1" id="surface1"><path style=" stroke:none;fill-rule:nonzero;fill:rgb(32.939148%,47.44873%,96.859741%);fill-opacity:1;" d="M 251.625 108.976562 L 222.148438 3.226562 C 163.425781 -7.726562 100.425781 9.449219 54.976562 54.898438 C 54.75 55.125 54.523438 55.425781 54.226562 55.648438 Z M 251.625 108.976562 "/><path style=" stroke:none;fill-rule:nonzero;fill:rgb(32.939148%,47.44873%,96.859741%);fill-opacity:1;" d="M 152.699219 91.574219 L 47.25 63.074219 C 3.824219 111.976562 -9.675781 177.976562 6.75 237.523438 Z M 152.699219 91.574219 "/><path style=" stroke:none;fill-rule:nonzero;fill:rgb(32.939148%,47.44873%,96.859741%);fill-opacity:1;" d="M 365.25 127.726562 C 356.324219 101.101562 341.25 76.125 320.101562 54.898438 C 294.898438 29.699219 264.300781 13.199219 232.050781 5.324219 L 287.773438 205.125 Z M 365.25 127.726562 "/><path style=" stroke:none;fill-rule:nonzero;fill:rgb(32.939148%,47.44873%,96.859741%);fill-opacity:1;" d="M 221.851562 283.800781 L 327 312.75 C 371.023438 263.851562 384.75 197.324219 368.175781 137.476562 Z M 221.851562 283.800781 "/><path style=" stroke:none;fill-rule:nonzero;fill:rgb(32.939148%,47.44873%,96.859741%);fill-opacity:1;" d="M 121.425781 265.5 L 149.023438 371.023438 C 208.800781 383.476562 273.523438 366.523438 319.949219 320.175781 Z M 121.425781 265.5 "/><path style=" stroke:none;fill-rule:nonzero;fill:rgb(32.939148%,47.44873%,96.859741%);fill-opacity:1;" d="M 9.75 247.273438 C 18.675781 273.898438 33.75 298.875 54.898438 320.101562 C 79.125 344.324219 108.300781 360.523438 139.125 368.699219 L 87.074219 169.949219 Z M 9.75 247.273438 "/></g></svg>